<svg enable-background="new 0 0 3000 3000" viewBox="0 0 3000 3000" xmlns="http://www.w3.org/2000/svg"><path d="m2656.1 1505.9c22.6 612-518.8 1174.9-1192.7 1154.5-584.2-17.7-1139-525.8-1116.8-1201.4 19-580.9 525.4-1134.1 1199.7-1112.3 596.3 19.3 1132.1 535.2 1109.8 1159.2zm-203 548.5c248.7-413.3 199.7-1008.1-225.4-1377.7-436.7-379.8-1074.1-363.2-1487.1 34.8-407.1 392.3-415 974.1-186.1 1342.1 24.3-20.5 48.7-40.6 72.6-61.3 81-70.3 162.5-140.1 242.2-211.9 17-15.3 33.2-36.1 39.9-57.5 13-41.4 17.3-85.4 28-127.7 37.7-148.8 71.5-299 117.4-445.3 20.9-66.7 66-126 101.4-187.9 61.6-107.7 123.3-215.3 186.9-321.8 16-26.8 36.5-52.3 59.6-73.2 27.6-24.9 59.2-21 85.3 4.7 5.3 5.3 8.1 13.1 12.2 20.1 48.9-53.1 89-52.4 129.4-2.3 14.3 17.7 27.1 36.9 38.6 56.5 70.9 120.6 142.7 240.7 211.2 362.7 33.4 59.4 69.9 119.6 88.2 184.2 43.5 153.3 79.9 308.9 113.2 464.9 13.4 62.6 37.7 112.8 87.1 153.1 53.9 43.9 105.6 90.5 158.4 135.7 42.1 36.1 84.5 71.7 127 107.8zm-826.4-880.6c2.9-1 5.9-2 8.8-2.9-5.3-29.7-7.7-60.3-16.3-89.1-32.3-107.2-66.6-213.7-100.2-320.5-4.7-15-9.6-30-16-50-6.6 21.3-11.3 36.4-15.9 51.5-35.6 115.5-71.7 230.8-106.2 346.6-5.9 20-5 42-7.6 66.2 72.3-33.4 118.8-4.8 123.6 69.9.3 4 .2 8 .2 11.9-.6 100.5-16.9 198-62.9 288.1-53.3 104.5-99.5 211.4-130.4 324.9-18 66-52.1 123.2-97 175.5-78.3 91.2-153.3 185.1-229.8 277.9-26.2 31.8-52.7 63.5-79.1 95.4 366.8 251.6 869.8 238.1 1210.5-.3-108-131.1-217.3-261.1-323.2-393.8-28.6-35.8-54.6-77.2-68.6-120.3-42-129.4-90.3-255.6-151.7-377.3-43.6-86.5-55.3-181.5-55-277.9 0-64.9 52-120.6 116.8-75.8z" fill="#090603"/><g fill="#f8991d" stroke="#f58320" stroke-miterlimit="10"><path d="m2453.1 2054.4c-42.5-36.1-84.9-71.7-127-107.7-52.8-45.2-104.5-91.8-158.4-135.7-49.4-40.2-73.7-90.5-87.1-153.1-33.3-155.9-69.7-311.5-113.2-464.9-18.3-64.6-54.9-124.9-88.2-184.2-68.5-122-140.3-242.1-211.2-362.7-11.5-19.6-24.3-38.8-38.6-56.5-40.4-50.1-80.5-50.9-129.4 2.3-4.1-6.9-6.9-14.8-12.2-20.1-26.1-25.7-57.7-29.7-85.3-4.7-23.1 20.9-43.6 46.4-59.6 73.2-63.5 106.5-125.3 214.1-186.9 321.8-35.4 61.9-80.5 121.2-101.4 187.9-45.9 146.3-79.7 296.4-117.4 445.3-10.7 42.2-15.1 86.3-28 127.7-6.7 21.4-22.8 42.2-39.9 57.5-79.7 71.7-161.2 141.5-242.2 211.9-23.9 20.7-48.3 40.8-72.6 61.3-228.9-368-221-949.8 186.1-1342.1 413.1-398 1050.4-414.6 1487.2-34.8 425 369.5 474 964.3 225.3 1377.6z"/><path d="m1626.7 1173.8c-64.8-44.8-116.8 10.9-117 76-.3 96.4 11.4 191.4 55 277.9 61.4 121.7 109.7 247.9 151.7 377.3 14 43.1 40.1 84.5 68.6 120.3 105.9 132.7 215.2 262.8 323.2 393.8-340.6 238.4-843.7 251.9-1210.5.3 26.4-31.9 52.9-63.6 79.1-95.4 76.5-92.8 151.5-186.8 229.8-277.9 45-52.3 79.1-109.5 97-175.5 30.9-113.5 77.1-220.4 130.4-324.9 46-90.2 62.2-187.6 62.9-288.1 0-4 .1-8-.2-11.9-4.8-74.7-51.3-103.3-123.6-69.9 2.6-24.2 1.7-46.2 7.6-66.2 34.5-115.8 70.6-231.1 106.2-346.6 4.6-15.1 9.3-30.2 15.9-51.5 6.4 19.9 11.3 34.9 16 50 33.6 106.8 67.9 213.3 100.2 320.5 8.6 28.7 11 59.3 16.3 89.1-2.7.7-5.7 1.7-8.6 2.7z"/></g></svg>